<svg xmlns="http://www.w3.org/2000/svg" xmlns:xlink="http://www.w3.org/1999/xlink" width="192" height="85.24" viewBox="0 0 192 85.24">
  <defs>
    <clipPath id="clip-path">
      <rect id="red_logo" data-name="red logo" width="192" height="85.24" transform="translate(3939 -1626)" fill="#fff"/>
    </clipPath>
  </defs>
  <g id="white_logo" data-name="white logo" transform="translate(-3939 1626)" clip-path="url(#clip-path)">
    <g id="Group_25" data-name="Group 25" transform="translate(3920.677 -1698.766)">
      <g id="Group_24" data-name="Group 24">
        <g id="Group_26" data-name="Group 26">
          <path id="Path_981" data-name="Path 981" d="M77.631,127.41A8.461,8.461,0,0,1,73.94,123.8a11.936,11.936,0,0,1-1.272-5.713v-2.658a13.449,13.449,0,0,1,1.215-5.974,8.465,8.465,0,0,1,3.544-3.771,11.406,11.406,0,0,1,5.622-1.295,8.989,8.989,0,0,1,5.293,1.545,9.521,9.521,0,0,1,3.35,4.486,19.543,19.543,0,0,1,1.147,7.1v1.545H76.711v-4.2H87.16l-.068-.545a5.5,5.5,0,0,0-1.283-3.158,3.589,3.589,0,0,0-2.76-1.113,4.511,4.511,0,0,0-3.487,1.34,5.382,5.382,0,0,0-1.238,3.792v3a4.963,4.963,0,0,0,1.352,3.725,5.2,5.2,0,0,0,3.782,1.318,7.245,7.245,0,0,0,2.476-.443,7.532,7.532,0,0,0,2.226-1.261l4.066,3.612a13.571,13.571,0,0,1-4.134,2.6,12.363,12.363,0,0,1-4.634.92,12.658,12.658,0,0,1-5.827-1.238" fill="#fff"/>
          <path id="Path_982" data-name="Path 982" d="M104.515,120.518a1.747,1.747,0,0,0,.488,1.329,1.945,1.945,0,0,0,1.4.466h1.045v5.995h-3.18a5.814,5.814,0,0,1-4.407-1.636,6.4,6.4,0,0,1-1.567-4.611V95.279h6.223Z" fill="#fff"/>
          <path id="Path_983" data-name="Path 983" d="M111.42,95.279h6.224V101.5H111.42Zm0,9.45h6.224v23.579H111.42Z" fill="#fff"/>
          <path id="Path_984" data-name="Path 984" d="M136.862,104.729h6.2L134.2,128.307H129.8l-8.859-23.579h6.2L132,119.516Z" fill="#fff"/>
          <path id="Path_985" data-name="Path 985" d="M150.525,127.41a8.461,8.461,0,0,1-3.691-3.612,11.931,11.931,0,0,1-1.272-5.713v-2.658a13.449,13.449,0,0,1,1.215-5.974,8.465,8.465,0,0,1,3.544-3.771,11.406,11.406,0,0,1,5.622-1.295,8.988,8.988,0,0,1,5.293,1.545,9.521,9.521,0,0,1,3.35,4.486,19.543,19.543,0,0,1,1.147,7.1v1.545H149.6v-4.2h10.449l-.068-.545a5.5,5.5,0,0,0-1.283-3.158,3.589,3.589,0,0,0-2.76-1.113,4.511,4.511,0,0,0-3.487,1.34,5.382,5.382,0,0,0-1.238,3.792v3a4.963,4.963,0,0,0,1.352,3.725,5.2,5.2,0,0,0,3.782,1.318,7.245,7.245,0,0,0,2.476-.443,7.531,7.531,0,0,0,2.226-1.261l4.066,3.612a13.571,13.571,0,0,1-4.134,2.6,12.363,12.363,0,0,1-4.634.92,12.658,12.658,0,0,1-5.827-1.238" fill="#fff"/>
          <path id="Path_986" data-name="Path 986" d="M171.185,104.729h6.678v23.579h-6.678Zm12.154,5.883a4.676,4.676,0,0,0-1.523-.227A3.62,3.62,0,0,0,178.9,111.6a5.054,5.054,0,0,0-1.034,3.373l-.477-6.133a8.421,8.421,0,0,1,2.533-3.282,5.564,5.564,0,0,1,3.419-1.17,7.29,7.29,0,0,1,2.669.466,5.835,5.835,0,0,1,2.079,1.374l-3.635,5.067a2.885,2.885,0,0,0-1.113-.681" fill="#fff"/>
          <path id="Path_987" data-name="Path 987" d="M188.539,104.729H194.4l7.927,20.489-3.93,5.02Zm21.784,0-10.494,29.1a7.528,7.528,0,0,1-1.465,2.556,4.931,4.931,0,0,1-2.158,1.352,10.563,10.563,0,0,1-3.169.409h-1.385V132.1h1.385a2.965,2.965,0,0,0,1.67-.443,2.7,2.7,0,0,0,1.011-1.442l8.746-25.487Z" fill="#fff"/>
        </g>
      </g>
      <line id="Line_1" data-name="Line 1" x2="17.78" transform="translate(18.323 120.603)" fill="none" stroke="#fff" stroke-miterlimit="10" stroke-width="4.219"/>
      <line id="Line_2" data-name="Line 2" x2="16.763" transform="translate(22.39 112.369)" fill="none" stroke="#fff" stroke-miterlimit="10" stroke-width="4.219"/>
      <line id="Line_3" data-name="Line 3" x2="13.77" transform="translate(27.214 104.135)" fill="none" stroke="#fff" stroke-miterlimit="10" stroke-width="4.219"/>
      <path id="Path_988" data-name="Path 988" d="M35.041,93.442A75.516,75.516,0,0,1,46.6,92.627c7.193,0,11.891,1.327,15.523,4.069,3.939,2.939,6.41,7.562,6.41,14.264,0,7.265-2.628,12.288-6.269,15.356-3.987,3.323-10.095,4.909-17.484,4.909a72.066,72.066,0,0,1-9.737-.56Zm8.56,30.936a19.345,19.345,0,0,0,2.99.148c7.764.067,12.867-4.222,12.867-13.286.018-7.877-4.593-12.018-11.963-12.018a18.675,18.675,0,0,0-3.893.327Z" fill="#fff"/>
    </g>
  </g>
</svg>
